HIERARCHY
ROOT hip
{
	OFFSET 0.000000 0.000000 0.000000 
	CHANNELS 6 Xposition Yposition Zposition Xrotation Zrotation Yrotation
	JOINT abdomen
	{
		OFFSET 0.000000 3.402643 0.000000 
		CHANNELS 3 Xrotation Zrotation Yrotation
		JOINT chest
		{
			OFFSET 0.000000 8.438565 -0.680529 
			CHANNELS 3 Xrotation Zrotation Yrotation
			JOINT neck
			{
				OFFSET 0.000000 10.207942 -0.272212 
				CHANNELS 3 Xrotation Zrotation Yrotation
				JOINT head
				{
					OFFSET 0.000000 3.130431 0.000000 
					CHANNELS 3 Xrotation Zrotation Yrotation
					End Site
					{
						OFFSET 0.000000 3.130435 0.000000 
					}
				}
			}
			JOINT lCollar
			{
				OFFSET 3.470700 6.669187 -0.816635 
				CHANNELS 3 Yrotation Zrotation Xrotation
				JOINT lShldr
				{
					OFFSET 3.198488 0.000000 0.000000 
					CHANNELS 3 Zrotation Yrotation Xrotation
					JOINT lForeArm
					{
						OFFSET 10.139888 0.000000 0.000000 
						CHANNELS 3 Yrotation Zrotation Xrotation
						JOINT lHand
						{
							OFFSET 8.370511 0.000000 0.000000 
							CHANNELS 3 Zrotation Yrotation Xrotation
							End Site
							{
								OFFSET 4.083176 0.000000 0.000000 
							}
						}
					}
				}
			}
			JOINT rCollar
			{
				OFFSET -3.470700 6.669187 -0.816635 
				CHANNELS 3 Yrotation Zrotation Xrotation
				JOINT rShldr
				{
					OFFSET -3.198488 0.000000 0.000000 
					CHANNELS 3 Zrotation Yrotation Xrotation
					JOINT rForeArm
					{
						OFFSET -10.139888 0.000000 0.000000 
						CHANNELS 3 Yrotation Zrotation Xrotation
						JOINT rHand
						{
							OFFSET -8.370511 0.000000 0.000000 
							CHANNELS 3 Zrotation Yrotation Xrotation
							End Site
							{
								OFFSET -4.083176 0.000000 0.000000 
							}
						}
					}
				}
			}
		}
	}
	JOINT lThigh
	{
		OFFSET 5.308129 -1.633274 1.361059 
		CHANNELS 3 Xrotation Zrotation Yrotation
		JOINT lShin
		{
			OFFSET -2.041588 -20.007561 0.000000 
			CHANNELS 3 Xrotation Zrotation Yrotation
			JOINT lFoot
			{
				OFFSET 0.000000 -19.190928 -1.224953 
				CHANNELS 3 Xrotation Yrotation Zrotation
				End Site
				{
					OFFSET 0.000000 -2.449906 4.627600 
				}
			}
		}
	}
	JOINT rThigh
	{
		OFFSET -5.308129 -1.633274 1.361059 
		CHANNELS 3 Xrotation Zrotation Yrotation
		JOINT rShin
		{
			OFFSET 2.041588 -20.007561 0.000000 
			CHANNELS 3 Xrotation Zrotation Yrotation
			JOINT rFoot
			{
				OFFSET 0.000000 -19.190928 -1.224953 
				CHANNELS 3 Xrotation Yrotation Zrotation
				End Site
				{
					OFFSET 0.000000 -2.449906 4.627600 
				}
			}
		}
	}
}
MOTION
Frames: 10
Frame Time: 0.033333
-8.169101 44.125107 1.412450 -3.834160 -5.533140 5.313870 -0.019530 -0.019644 -0.019419 1.015710 -0.019501 0.488752 8.507950 5.856670 1.022530 7.186220 5.038760 -5.264000 -5.246075 7.157705 0.821244 -69.392899 -21.364799 12.515000 -92.116402 3.464750 15.460100 3.225410 -2.989360 -0.460010 -25.499187 10.870995 0.559829 69.085403 26.962799 73.988098 85.163902 -3.036010 21.878599 -47.290298 -35.711201 5.280020 -13.349982 24.848957 32.274521 36.387852 0.143931 6.602042 -5.850021 0.144858 -4.292398 4.744996 9.347046 -16.231403 3.172476 0.307569 -12.029398 -6.567232 -0.090071 3.568429 
-8.171931 44.099712 1.377534 -3.608110 -5.821540 4.976700 -0.019530 -0.019644 -0.019419 1.015700 -0.019892 0.478994 8.513800 6.093480 1.088040 7.025340 5.608390 -5.238030 -5.497810 7.611722 0.983083 -69.491600 -21.347000 12.139900 -92.601402 3.499070 15.340700 2.800270 -2.902230 -0.347061 -25.809587 11.198080 0.715376 69.045700 26.982901 73.863297 85.218498 -3.035750 21.965500 -47.597500 -35.716202 5.324690 -13.808716 25.272837 32.253654 36.883125 0.153817 6.769329 -6.075243 0.174543 -4.399540 4.471404 9.560547 -15.727708 3.195112 0.319314 -12.155272 -6.650354 -0.104782 3.669575 
-8.162249 44.081966 1.341917 -3.444570 -6.072770 4.456460 -0.019530 -0.019644 -0.019419 1.015700 -0.019892 0.478994 8.518670 6.283570 1.133720 6.417250 5.961020 -5.268630 -5.838904 8.044538 1.267881 -69.334396 -21.223600 11.766400 -93.167297 3.532730 15.494700 3.259980 -2.764870 -0.460623 -26.147573 11.582623 0.989689 68.970200 26.999599 73.703697 85.235703 -3.059210 21.555599 -46.656799 -35.928799 5.328480 -14.033565 25.595224 32.285789 37.250027 0.144589 7.140192 -6.266878 0.200849 -4.625062 4.266850 9.699736 -15.174430 3.206262 0.315772 -12.164581 -6.688741 -0.103926 3.798545 
-8.137579 44.076466 1.305791 -3.303110 -6.247830 3.786500 -0.019530 -0.019644 -0.019419 1.015700 -0.019892 0.478994 8.521900 6.406310 1.172460 5.740870 6.223330 -5.425130 -6.307178 8.338613 1.551875 -69.021301 -20.971901 11.289800 -93.753197 3.550490 15.669500 3.757880 -2.657480 -0.591918 -26.508526 11.971345 1.237628 68.908699 26.981100 73.534698 85.267700 -3.069860 21.134199 -45.034599 -35.883701 5.118390 -14.082315 25.721165 32.329144 37.429585 0.134445 7.713573 -6.401053 0.218125 -4.896610 4.100941 9.714710 -14.619627 3.210482 0.308178 -11.988694 -6.662687 -0.138012 3.932480 
-8.104743 44.080509 1.267038 -3.123370 -6.356190 3.026750 -0.019530 -0.019644 -0.019419 1.015700 -0.020283 0.469236 8.522890 6.443520 1.191120 5.401970 6.573770 -5.700970 -6.753978 8.486489 1.762110 -68.746101 -20.724199 10.847400 -94.175903 3.576760 15.739500 3.970410 -2.716420 -0.648874 -26.878853 12.330044 1.371982 68.836098 27.189800 73.379997 85.500099 -3.093280 20.921499 -43.643200 -35.551998 4.807730 -14.082364 25.670294 32.282623 37.460583 0.114682 8.475039 -6.466137 0.247280 -5.172720 3.886013 9.614491 -14.230954 3.217229 0.297412 -11.607487 -6.601642 -0.144077 4.067825 
-8.073074 44.093540 1.222518 -2.855520 -6.388110 2.202010 -0.019530 -0.019644 -0.019419 1.015690 -0.021456 0.439962 8.531670 6.403630 1.202740 4.826860 7.147700 -6.103270 -7.069170 8.442136 1.813230 -68.589500 -20.631800 10.493800 -94.333397 3.590120 15.593200 3.520430 -2.960030 -0.534978 -27.179621 12.588262 1.365441 68.733597 27.261101 73.334503 85.535896 -3.092530 20.955601 -43.042999 -35.155300 4.547770 -14.121387 25.493635 32.157436 37.419197 0.085839 9.372868 -6.414949 0.258172 -5.369787 3.573425 9.462680 -13.988713 3.226514 0.290088 -11.060097 -6.505478 -0.159747 4.166395 
-8.046292 44.109268 1.171304 -2.578020 -6.381580 1.343140 -0.019530 -0.019644 -0.019419 1.015680 -0.012866 0.410474 8.529860 6.334670 1.216310 4.332590 7.937440 -6.438400 -7.223501 8.245499 1.772827 -68.564400 -20.685200 10.127300 -94.305603 3.608170 15.145100 2.148160 -3.295290 -0.187997 -27.334921 12.711834 1.254636 68.637604 27.176701 73.358498 85.429199 -3.076520 21.166700 -43.640499 -35.048599 4.555420 -14.180106 25.265867 32.089668 37.338528 0.056973 10.262826 -6.270454 0.273441 -5.424720 3.212576 9.282169 -13.814527 3.227462 0.258952 -10.454706 -6.376542 -0.148190 4.137886 
-8.021601 44.132858 1.119357 -2.408850 -6.374610 0.480153 -0.019530 -0.019644 -0.019419 1.015680 -0.013648 0.390958 8.528360 6.276840 1.212640 4.011430 8.733590 -6.584190 -7.306818 7.943617 1.776620 -68.588600 -20.803699 9.794860 -94.185600 3.634740 14.528300 0.399037 -3.545210 0.270937 -27.381618 12.680296 1.201261 68.577599 27.026699 73.400902 85.281197 -3.057970 21.451500 -45.250500 -35.376900 4.879870 -14.062889 25.070652 32.207844 37.194984 0.033175 11.050559 -6.017092 0.271741 -5.346837 2.968544 9.124265 -13.522367 3.228619 0.249745 -9.946742 -6.141442 -0.150620 3.995280 
-7.995887 44.158020 1.077645 -2.406380 -6.376300 -0.350611 -0.019530 -0.019644 -0.019419 1.015680 -0.013257 0.400716 8.527370 6.238830 1.203710 3.742170 9.183400 -6.524220 -7.371523 7.700278 1.890438 -68.640999 -20.875500 9.567930 -94.061203 3.641400 14.154400 -0.986750 -3.732250 0.641048 -27.391438 12.591386 1.276765 68.459602 26.926399 73.447098 85.187897 -3.046550 21.675600 -47.117199 -35.967800 5.401770 -13.672565 24.933254 32.575191 36.937550 0.008697 11.677154 -5.742170 0.231006 -5.200719 2.909880 8.997178 -12.975331 3.241082 0.241022 -9.731424 -5.837193 -0.115842 3.772509 
-7.970408 44.176109 1.047512 -2.441940 -6.425740 -1.105180 -0.019530 -0.019644 -0.019419 1.015680 -0.012866 0.410474 8.527410 6.240450 1.184240 3.430540 9.156450 -6.349920 -7.379358 7.583893 2.072154 -68.653999 -20.927799 9.610860 -93.938202 3.642980 13.989300 -1.514220 -3.791100 0.785388 -27.351662 12.595767 1.434263 68.311897 26.798901 73.231201 85.232697 -3.058460 21.604401 -47.963402 -36.510502 5.801610 -13.193824 24.840149 33.043568 36.624859 -0.020561 12.149252 -5.519298 0.227977 -5.113462 2.919369 8.923328 -12.305888 3.231369 0.231431 -9.702645 -5.566667 -0.103948 3.551112 
